<?xml version="1.0" encoding="UTF-8"?>
<svg xmlns="http://www.w3.org/2000/svg" version="1.1" viewBox="0 0 68 44">
  <defs>
    <style>
      .cls-1 {
        fill: #231f20;
      }
    </style>
  </defs>
  <!-- Generator: Adobe Illustrator 28.7.3, SVG Export Plug-In . SVG Version: 1.2.0 Build 164)  -->
  <g>
    <g id="Layer_1">
      <g id="Layer_1-2" data-name="Layer_1">
        <g id="Layer_1-2">
          <path class="cls-1" d="M66.1,6.5c0-.8,0-1.6-.7-2.3l-2-2.2c-1-1.2-3-1.4-4.3-.6l-24.9,15.5L9.3,1.5h0c-1.5-.8-3.3-.5-4.3.7l-2,2.2c-.5.6-.8,1.4-.7,2.2s.6,1.4,1.3,1.8l22.3,13.8-21.5,13.4c-.7.4-1.2,1.1-1.3,1.8,0,.8,0,1.6.8,2.3l2,2.2c.6.7,1.6,1.1,2.5,1.1s1.2-.2,1.7-.5l24.1-15.1,24.1,14.9c.5.3,1.1.5,1.8.5s1.9-.4,2.5-1.1l2-2.2c.6-.6.9-1.3.8-2.1,0-.8-.5-1.5-1.3-2l-21.5-13.4,22.3-13.9c.7-.4,1.1-1,1.2-1.7h0Z"/>
        </g>
      </g>
    </g>
  </g>
</svg>