<?xml version="1.0" encoding="UTF-8"?>
<svg xmlns="http://www.w3.org/2000/svg" version="1.1" viewBox="0 0 56 30">
  <defs>
    <style>
      .cls-1 {
        fill: #231f20;
      }
    </style>
  </defs>
  <!-- Generator: Adobe Illustrator 28.7.3, SVG Export Plug-In . SVG Version: 1.2.0 Build 164)  -->
  <g>
    <g id="Layer_1">
      <g id="Layer_1-2" data-name="Layer_1">
        <g id="Layer_1-2">
          <g>
            <path class="cls-1" d="M2.2,4.8h51.3c1.3,0,2.4-1.1,2.4-2.4s-1.1-2.4-2.5-2.4H2.4C1.1,0,0,1.1,0,2.4s.3,1.4.8,1.9c.4.4.9.5,1.4.5Z"/>
            <path class="cls-1" d="M53.1,12.2H2.8c-1.5,0-2.8,1.3-2.8,2.8s1.3,2.8,2.8,2.8h50.3c1.5,0,2.8-1.3,2.8-2.8s-1.3-2.8-2.8-2.8Z"/>
            <path class="cls-1" d="M53.5,25.1H2.4c-1.3,0-2.4,1.1-2.4,2.5s.3,1.3.8,1.8c.4.4.9.5,1.5.5s.2,0,.2,0h51c1.3,0,2.4-1.1,2.4-2.4s-1.1-2.4-2.4-2.4Z"/>
          </g>
        </g>
      </g>
    </g>
  </g>
</svg>