<?xml version="1.0" encoding="UTF-8"?>
<svg xmlns="http://www.w3.org/2000/svg" version="1.1" viewBox="0 0 512 512">
  <!-- Generator: Adobe Illustrator 28.7.2, SVG Export Plug-In . SVG Version: 1.2.0 Build 154)  -->
  <g>
    <g id="Layer_1">
      <path d="M457.5,84.8L269.1,4.9c-4.2-1.9-8.7-2.9-13.4-2.9s-9.2,1-13.4,2.9L54,84.8c-22,9.3-38.4,31-38.3,57.2.5,99.2,41.3,280.7,213.6,363.2,16.7,8,36.1,8,52.8,0,172.3-82.5,213.1-264,213.6-363.2,0-26.2-16.3-47.9-38.3-57.2ZM255.8,96c41.4,0,75,33.6,75,75s-33.6,75-75,75-75-33.6-75-75,33.6-75,75-75ZM287.1,457.5s-17.7,10-35.6,10-36.6-10-36.6-10c0,0-90.4-44.5-90.4-79.5s30.4-81.4,71.4-91.6c4.7-1.2,9.3,1.9,10.5,6.6l21.1,86.1,19.5-72.6-10.9-18.2h0c-3.8-6.2.8-14.2,8-14.2h23.1c7.3,0,11.8,7.9,8,14.2l-10.9,18.2,19.5,72.6,21.1-86.1c1.2-4.7,5.7-7.8,10.5-6.6,41,10.3,71.4,47.4,71.4,91.6s-99.9,79.5-99.9,79.5Z"/>
    </g>
  </g>
</svg>