<?xml version="1.0" encoding="UTF-8"?>
<svg xmlns="http://www.w3.org/2000/svg" version="1.1" viewBox="0 0 512 512">
  <!-- Generator: Adobe Illustrator 28.7.2, SVG Export Plug-In . SVG Version: 1.2.0 Build 154)  -->
  <g>
    <g id="Layer_1">
      <g>
        <path d="M320.1,172.5h-109.9c-5,0-9.2,4.1-9.2,9.2s4.1,9.2,9.2,9.2h109.9c5,0,9.2-4.1,9.2-9.2s-4.1-9.2-9.2-9.2Z"/>
        <path d="M320.1,209.1h-109.9c-5,0-9.2,4.1-9.2,9.2s4.1,9.2,9.2,9.2h109.9c5,0,9.2-4.1,9.2-9.2s-4.1-9.2-9.2-9.2Z"/>
        <path d="M164.4,337.4c0,10.1,8.2,18.3,18.3,18.3h146.5v-36.6h-146.5c-10.1,0-18.3,8.2-18.3,18.3Z"/>
        <path d="M457.5,84.8L269.1,4.9c-4.2-1.9-8.7-2.9-13.4-2.9s-9.2,1-13.4,2.9L54,84.8c-22,9.3-38.4,31-38.3,57.2.5,99.2,41.3,280.7,213.6,363.2,16.7,8,36.1,8,52.8,0,172.3-82.5,213.1-264,213.6-363.2,0-26.2-16.3-47.9-38.3-57.2ZM384.2,300.7c0,10.1-8.2,18.3-18.3,18.3v36.6c10.1,0,18.3,8.2,18.3,18.3s-8.2,18.3-18.3,18.3h-183.2c-30.3,0-55-24.6-55-55v-183.2c0-30.3,24.6-55,55-55h183.2c10.1,0,18.3,8.2,18.3,18.3v183.2Z"/>
      </g>
    </g>
  </g>
</svg>