<?xml version="1.0" encoding="UTF-8"?>
<svg xmlns="http://www.w3.org/2000/svg" version="1.1" viewBox="0 0 512 512">
  <defs>
    <style>
      .cls-1 {
        fill: #666;
      }
    </style>
  </defs>
  <!-- Generator: Adobe Illustrator 28.7.2, SVG Export Plug-In . SVG Version: 1.2.0 Build 154)  -->
  <g>
    <g id="Layer_1">
      <g id="Layer_1-2" data-name="Layer_1">
        <g>
          <path class="cls-1" d="M459.4,82.8L271.1,2.9c-4.2-1.9-8.8-2.9-13.4-2.9s-9.2,1-13.3,2.9L56,82.8c-22,9.3-38.4,31-38.3,57.2.5,99.2,41.3,280.7,213.6,363.2,16.7,8,36.1,8,52.8,0,172.3-82.5,213.1-264,213.6-363.2,0-26.2-16.3-47.9-38.3-57.2h0ZM296.8,402.2l-54.1-105.3h-31.9v105.3h-83.1V88.1h118.9c67.6,0,125.6,23.2,125.6,101.5s-20.3,74.2-50.9,90.6l68.2,121.9h-92.8,0Z"/>
          <path class="cls-1" d="M240.8,153.8h-30v77.3h30c32.9,0,50.2-14.5,50.2-41.6s-17.4-35.8-50.2-35.8h0Z"/>
        </g>
      </g>
    </g>
  </g>
</svg>