<?xml version="1.0" encoding="UTF-8"?>
<svg xmlns="http://www.w3.org/2000/svg" version="1.1" viewBox="0 0 512 512">
  <!-- Generator: Adobe Illustrator 28.7.2, SVG Export Plug-In . SVG Version: 1.2.0 Build 154)  -->
  <g>
    <g id="Layer_1">
      <path d="M457.5,84.8L269.1,4.9c-4.2-1.9-8.7-2.9-13.4-2.9s-9.2,1-13.4,2.9L54,84.8c-22,9.3-38.4,31-38.3,57.2.5,99.2,41.3,280.7,213.6,363.2,16.7,8,36.1,8,52.8,0,172.3-82.5,213.1-264,213.6-363.2,0-26.2-16.3-47.9-38.3-57.2ZM210.2,79.2c3.1-3.1,8.2-3.1,11.3,0l26.3,26.3V29c0-4.4,3.6-8,8-8s8,3.6,8,8v76.5l26.3-26.3c3.1-3.1,8.2-3.1,11.3,0s3.1,8.2,0,11.3l-39.9,39.9c-3.1,3.1-8.2,3.1-11.3,0h0s-39.9-39.9-39.9-39.9c-3.1-3.1-3.1-8.2,0-11.3ZM256.8,145.8c39.2,0,70.9,31.8,70.9,70.9s-31.8,70.9-70.9,70.9-70.9-31.8-70.9-70.9,31.8-70.9,70.9-70.9ZM286.4,474.9s-16.8,9.4-33.7,9.4-34.6-9.4-34.6-9.4c0,0-85.5-42.1-85.5-75.2s28.8-77,67.6-86.7c4.5-1.2,29.4-6.9,56.6-6.9s52.1,5.7,56.6,6.9c38.8,9.7,67.6,44.8,67.6,86.7s-94.5,75.2-94.5,75.2Z"/>
    </g>
  </g>
</svg>