<?xml version="1.0" encoding="UTF-8"?>
<svg xmlns="http://www.w3.org/2000/svg" version="1.1" viewBox="0 0 512 512">
  <defs>
    <style>
      .cls-1 {
        fill: #ffb300;
      }
    </style>
  </defs>
  <!-- Generator: Adobe Illustrator 28.7.2, SVG Export Plug-In . SVG Version: 1.2.0 Build 154)  -->
  <g>
    <g id="Layer_1">
      <g id="Layer_1-2" data-name="Layer_1">
        <path class="cls-1" d="M459.4,82.8L271.1,2.9c-4.2-1.9-8.8-2.9-13.4-2.9s-9.2,1-13.3,2.9L56,82.8c-22,9.3-38.4,31-38.3,57.2.5,99.2,41.3,280.7,213.6,363.2,16.7,8,36.1,8,52.8,0,172.3-82.5,213.1-264,213.6-363.2,0-26.2-16.3-47.9-38.3-57.2h0ZM258.1,414.9c-39.6,0-85-14.5-118.9-44.9l47.3-57c22.2,17.9,50.2,30.4,73.4,30.4s35.8-8.2,35.8-22.2-15.9-19.8-42.5-30.4l-39.1-16.4c-33.8-13.5-63.3-42-63.3-87.4s48.3-97.6,116.9-97.6,75.4,13.5,104.4,42l-41.5,52.2c-21.3-15-39.6-22.7-62.8-22.7s-32.9,7.2-32.9,21.3,17.9,20.3,46.4,31.4l38.2,15c39.1,15.5,61.4,42.5,61.4,86s-44.4,100.5-122.7,100.5v-.2Z"/>
      </g>
    </g>
  </g>
</svg>