<?xml version="1.0" encoding="UTF-8"?>
<svg xmlns="http://www.w3.org/2000/svg" version="1.1" viewBox="0 0 512 512">
  <!-- Generator: Adobe Illustrator 28.7.2, SVG Export Plug-In . SVG Version: 1.2.0 Build 154)  -->
  <g>
    <g id="Layer_1">
      <g>
        <path d="M259.7,133.7c-25.2,0-45.6,20.4-45.6,45.6s20.4,45.6,45.6,45.6,45.6-20.4,45.6-45.6-20.4-45.6-45.6-45.6ZM276.3,187.6h-16.6c-4.6,0-8.3-3.7-8.3-8.3v-16.6c0-4.6,3.7-8.3,8.3-8.3s8.3,3.7,8.3,8.3v8.3h8.3c4.6,0,8.3,3.7,8.3,8.3s-3.7,8.3-8.3,8.3Z"/>
        <rect x="135.5" y="187.6" width="33.1" height="49.7" rx="8.3" ry="8.3"/>
        <rect x="350.9" y="253.9" width="33.1" height="49.7" rx="8.3" ry="8.3"/>
        <rect x="135.5" y="253.9" width="33.1" height="49.7" rx="8.3" ry="8.3"/>
        <rect x="350.9" y="187.6" width="33.1" height="49.7" rx="8.3" ry="8.3"/>
        <path d="M457.5,84.8L269.1,4.9c-4.2-1.9-8.7-2.9-13.4-2.9s-9.2,1-13.4,2.9L54,84.8c-22,9.3-38.4,31-38.3,57.2.5,99.2,41.3,280.7,213.6,363.2,16.7,8,36.1,8,52.8,0,172.3-82.5,213.1-264,213.6-363.2,0-26.2-16.3-47.9-38.3-57.2ZM425.4,328.4c0,13.7-11.1,24.9-24.9,24.9h-107.7v-49.7c0-18.3-14.9-33.1-33.1-33.1s-33.1,14.9-33.1,33.1v49.7h-107.7c-13.7,0-24.9-11.1-24.9-24.9v-165.7c0-13.7,11.1-24.9,24.9-24.9h61.2l70.4-46.9c5.6-3.7,12.8-3.7,18.4,0l70.4,46.9h61.2c13.7,0,24.9,11.1,24.9,24.9v165.7Z"/>
      </g>
    </g>
  </g>
</svg>