<?xml version="1.0" encoding="UTF-8"?>
<svg xmlns="http://www.w3.org/2000/svg" version="1.1" viewBox="0 0 512 512">
  <defs>
    <style>
      .cls-1 {
        fill: #004cff;
      }
    </style>
  </defs>
  <!-- Generator: Adobe Illustrator 28.7.2, SVG Export Plug-In . SVG Version: 1.2.0 Build 154)  -->
  <g>
    <g id="Layer_1">
      <g id="Layer_1-2" data-name="Layer_1">
        <path class="cls-1" d="M459.4,82.8L271.1,2.9c-4.2-1.9-8.8-2.9-13.4-2.9s-9.2,1-13.3,2.9L56,82.8c-22,9.3-38.4,31-38.3,57.2.5,99.2,41.3,280.7,213.6,363.2,16.7,8,36.1,8,52.8,0,172.3-82.5,213.1-264,213.6-363.2,0-26.2-16.3-47.9-38.3-57.2h0ZM360.1,175.6h-121.8v59.9h104.4v69.6h-104.4v115h-83.1V106.1h204.9v69.6h0Z"/>
      </g>
    </g>
  </g>
</svg>